<?xml version="1.0" encoding="utf-8"?>
<svg version="1.1" xmlns="http://www.w3.org/2000/svg" xmlns:xlink="http://www.w3.org/1999/xlink" x="0px" y="0px"
	 viewBox="0 0 612 792" style="enable-background:new 0 0 612 792;" xml:space="preserve">


<g id="Capa_1" fill="#E0E0E0">
	<path class="st0" d="M302.4,265.1h15.6v33.6h17v12.9c-11.7,0-20.9,0.2-32.7,0.2V265.1z"/>
	<polygon class="st0" points="371.3,265.4 388.5,265.4 393.9,311.1 374.8,310.6 	"/>
	<polygon class="st0" points="248.2,277.9 246.4,311.9 228.2,311.9 230.6,277.9 222.7,277.9 222.7,265.1 263.8,265.1 258.3,277.9 	
		"/>
	<path class="st0" d="M186.1,265.4c11,0,22,0,33.1,0l-2.1,12.8h-16.2v3.5l16.8-0.4l-1,14.3h-15.8v3.8h14.9l-1,11.6
		c-11,0-23.9-0.2-34.9-0.2L186.1,265.4z"/>
	<path class="st0" d="M286.8,264.9l12.3,46.6l-18-0.9l-2.2-5.5l-7.9,0l-3.6,6.6l-20.2-0.4l24.1-46.8L286.8,264.9L286.8,264.9z
		 M274.2,293.1l4.3,0l-2-7.3L274.2,293.1z"/>
	<path class="st0" d="M421,264.7c2,0.1,3.2-0.3,12.3,0.9l0.8,14.9c-2.5-2-10.4-2.7-14-1.7c-3.5,0.6-7.8,3.8-7.7,9
		c-0.2,4.5,4.6,9.2,9.3,9.5c4.4,0.8,11.6-0.6,14.6-3.2l3,15.7c-8.4,2.8-7.9,2.9-18.3,2.9c-15.4,0-28-10.8-28-24
		C391.5,275,403.4,264.1,421,264.7z"/>
	<path class="st0" d="M336.7,265.3h15.6l3.3,33.7l14.5,0.1l1.7,12.4c-11.7,0-22.1,0.2-33.8,0.2L336.7,265.3z"/>
	<polygon class="st0" points="420.7,232.8 434.9,252.8 444.1,308.6 470.7,331.7 459.9,299 478.8,310.6 518,363.7 491.9,353.3 
		592.7,431.8 457.2,263.6 478.8,269.8 	"/>
	<polygon class="st1" points="457.6,284.4 464.5,287.5 455.3,275.2 	"/>
	<polygon class="st0" points="184.1,235.1 126.8,275.5 148.3,269.4 14,433.7 114.8,355.6 88.7,366.7 144.1,290.9 147.5,300.5 
		157.5,291.3 144.1,332.9 174.1,310.9 181.4,257.1 156.8,279 	"/>
</g>
</svg>
